<svg width="1390" height="200" viewBox="0 0 1390 200" fill="none" xmlns="http://www.w3.org/2000/svg">
<mask id="mask0_52_31" style="mask-type:alpha" maskUnits="userSpaceOnUse" x="0" y="9" width="1353" height="142">
<path d="M88.6 9.99999C94.6 10.1333 100.067 11.2667 105 13.4C110.067 15.5333 114.467 18.4 118.2 22C122.067 25.6 125.133 29.7333 127.4 34.4C129.8 39.0667 131.267 44 131.8 49.2C132.333 54.2667 131.867 59.4667 130.4 64.8C129.067 70.1333 126.6 75.2 123 80C126.467 84.6667 128.933 89.6 130.4 94.8C131.867 100 132.333 105.133 131.8 110.2C131.4 115.267 130.067 120.133 127.8 124.8C125.533 129.467 122.533 133.667 118.8 137.4C115.067 141 110.667 144 105.6 146.4C100.533 148.667 94.8667 149.933 88.6 150.2H21V129.2H0V84H21V76H0V31H21V9.99999H88.6ZM105.6 79.8C106.8 78.7333 108.133 77.4667 109.6 76C111.2 74.4 112.733 72.6 114.2 70.6C115.667 68.4667 116.867 66 117.8 63.2C118.867 60.4 119.4 57.1333 119.4 53.4C119.4 49.1333 118.6 45.1333 117 41.4C115.4 37.6667 113.2 34.4 110.4 31.6C107.6 28.8 104.333 26.6 100.6 25C96.8667 23.4 92.8667 22.6 88.6 22.6H33.6V31H88.6C91.6667 31 94.5333 31.6 97.2 32.8C100 34 102.4 35.6 104.4 37.6C106.533 39.6 108.2 42 109.4 44.8C110.6 47.4667 111.2 50.3333 111.2 53.4C111.2 56.6 110.6 59.6 109.4 62.4C108.2 65.0667 106.533 67.4 104.4 69.4C102.4 71.4 100 73 97.2 74.2C94.5333 75.4 91.6667 76 88.6 76H39V63.4H88.6C91.2667 63.4 93.5333 62.4667 95.4 60.6C97.4 58.6 98.4 56.2 98.4 53.4C98.4 50.7333 97.4 48.4667 95.4 46.6C93.5333 44.6 91.2667 43.6 88.6 43.6H12.8V63.4H21V49H33.6V84H88.6C91.6667 84 94.5333 84.6 97.2 85.8C100 87 102.4 88.6667 104.4 90.8C106.533 92.8 108.2 95.2 109.4 98C110.6 100.667 111.2 103.533 111.2 106.6C111.2 109.667 110.6 112.6 109.4 115.4C108.2 118.067 106.533 120.467 104.4 122.6C102.4 124.6 100 126.2 97.2 127.4C94.5333 128.6 91.6667 129.2 88.6 129.2H39V116.4H88.6C91.2667 116.4 93.5333 115.467 95.4 113.6C97.4 111.6 98.4 109.267 98.4 106.6C98.4 103.933 97.4 101.667 95.4 99.8C93.5333 97.8 91.2667 96.8 88.6 96.8H12.8V116.4H21V102.4H33.6V137.4H88.6C92.8667 137.4 96.8667 136.6 100.6 135C104.333 133.4 107.6 131.2 110.4 128.4C113.2 125.6 115.4 122.333 117 118.6C118.6 114.867 119.4 110.867 119.4 106.6C119.4 103 118.867 99.8 117.8 97C116.867 94.2 115.667 91.7333 114.2 89.6C112.733 87.4667 111.2 85.6667 109.6 84.2C108.133 82.6 106.8 81.2667 105.6 80.2L105.8 80L105.6 79.8ZM296.314 150H252.314C246.047 142.933 239.981 136.067 234.114 129.4C231.581 126.6 228.981 123.733 226.314 120.8C223.781 117.733 221.247 114.8 218.714 112C216.181 109.067 213.714 106.333 211.314 103.8C209.047 101.267 207.047 99 205.314 97L200.914 96.6V83.8L210.914 84.2C217.047 91.1333 223.047 97.8 228.914 104.2C231.447 107 234.047 109.867 236.714 112.8C239.381 115.733 241.981 118.667 244.514 121.6C247.181 124.533 249.647 127.333 251.914 130C254.314 132.667 256.514 135.067 258.514 137.2H268.314L221.714 83.8H245.314C250.381 83.6667 254.781 82.6667 258.514 80.8C262.381 78.9333 265.581 76.6 268.114 73.8C270.781 70.8667 272.781 67.6 274.114 64C275.447 60.4 276.114 56.8 276.114 53.2C276.114 48.9333 275.314 44.9333 273.714 41.2C272.114 37.4667 269.914 34.2667 267.114 31.6C264.314 28.8 261.047 26.6 257.314 25C253.581 23.4 249.581 22.6 245.314 22.6H195.514V57.6H182.714V43.4H174.514V63H245.314C247.981 63 250.247 62.0667 252.114 60.2C254.114 58.2 255.114 55.8667 255.114 53.2C255.114 50.5333 254.114 48.2667 252.114 46.4C250.247 44.4 247.981 43.4 245.314 43.4H200.914V30.8H245.314C248.381 30.8 251.247 31.4 253.914 32.6C256.714 33.8 259.114 35.4 261.114 37.4C263.114 39.4 264.714 41.8 265.914 44.6C267.114 47.2667 267.714 50.1333 267.714 53.2C267.714 56.2667 267.114 59.2 265.914 62C264.714 64.6667 263.114 67 261.114 69C259.114 71 256.714 72.6 253.914 73.8C251.247 75 248.381 75.6 245.314 75.6H195.514V150H161.914V83.8H182.714V75.6H161.914V30.8H182.714V9.79999H245.314C251.314 9.79999 256.914 10.9333 262.114 13.2C267.447 15.4667 272.047 18.6 275.914 22.6C279.914 26.4667 283.047 31.0667 285.314 36.4C287.581 41.6 288.714 47.2 288.714 53.2C288.714 58 287.847 62.8 286.114 67.6C284.381 72.4 281.847 76.8 278.514 80.8C275.314 84.8 271.247 88.2 266.314 91C261.514 93.8 255.914 95.5333 249.514 96.2L296.314 150ZM182.714 96.6H174.514V137.4H182.714V96.6ZM444.978 9.99999V43.8H356.778V31H432.178V22.6H351.378V57.8H338.578V43.8H330.378V63.2H418.178V97H356.778V84.2H405.378V75.8H351.378V111H338.578V97H330.378V116.4H444.978V150.2H338.578V129H317.578V84.2H338.578V75.8H317.578V31H338.578V9.99999H444.978ZM351.378 129V137.4H432.178V129H351.378ZM597.727 110.6L615.127 150.2H577.927L566.327 123.2H495.527L489.327 137.4H498.527L502.327 128.6H516.327L506.927 150.2H469.727L487.127 110.4H510.127L513.927 102H490.927L531.527 9.99999L542.527 35.6L553.527 10.4L594.327 102H570.927L586.327 137.4H595.527L589.327 123.4H585.927L580.727 110.6H597.727ZM510.527 89.2H519.327L535.527 51.8L531.327 41.8L510.527 89.2ZM539.127 89.2H574.727L553.727 42L549.527 51.8L563.327 84H549.527L542.527 67.8L524.127 110.4L560.927 110.6L557.127 102H533.527L539.127 89.2ZM715.617 9.79999H753.017L691.217 150L680.217 124.2L669.217 149.8L607.617 9.79999H645.017L680.217 92L715.617 9.79999ZM669.017 117.8L673.217 108L636.617 22.6H627.217L669.017 117.8ZM687.217 108L691.417 118L733.417 22.6H724.017L687.217 108ZM869.602 110.6L887.002 150.2H849.802L838.202 123.2H767.402L761.202 137.4H770.402L774.202 128.6H788.202L778.802 150.2H741.602L759.002 110.4H782.002L785.802 102H762.802L803.402 9.99999L814.402 35.6L825.402 10.4L866.202 102H842.802L858.202 137.4H867.402L861.202 123.4H857.802L852.602 110.6H869.602ZM782.402 89.2H791.202L807.402 51.8L803.202 41.8L782.402 89.2ZM811.002 89.2H846.602L825.602 42L821.402 51.8L835.202 84H821.402L814.402 67.8L796.002 110.4L832.802 110.6L829.002 102H805.402L811.002 89.2ZM1002.84 9.99999H1035.44V139.2L1015.24 118.6V150.2L918.841 49V137.8H926.841V66.4L939.241 79V150.2H906.641V18.6L926.841 39.4V9.99999L997.641 83.4V101L939.241 40V52.2L1002.84 119.8V9.99999ZM1023.24 109.2V21.4H1015.24V101.2L1023.24 109.2ZM1195.65 65.2H1161.45V49.6H1174.45V52.4H1182.65V44H1135.85C1131.45 44 1127.25 44.6667 1123.25 46C1119.38 47.2 1115.85 49 1112.65 51.4C1109.58 53.8 1106.92 56.6667 1104.65 60C1102.38 63.3333 1100.78 67 1099.85 71C1098.25 77 1098.25 83 1099.85 89C1100.78 93 1102.38 96.6667 1104.65 100C1106.92 103.333 1109.58 106.2 1112.65 108.6C1115.85 111 1119.38 112.867 1123.25 114.2C1127.25 115.4 1131.45 116 1135.85 116H1156.05V129H1135.85C1129.98 129 1124.38 128.133 1119.05 126.4C1113.85 124.533 1109.12 122 1104.85 118.8C1100.58 115.6 1096.92 111.733 1093.85 107.2C1090.78 102.667 1088.58 97.6667 1087.25 92.2C1086.18 88.2 1085.65 84.1333 1085.65 80C1085.78 75.8667 1086.32 71.8 1087.25 67.8C1088.58 62.3333 1090.78 57.4 1093.85 53C1096.92 48.4667 1100.58 44.6 1104.85 41.4C1109.12 38.2 1113.85 35.7333 1119.05 34C1124.38 32.1333 1129.98 31.2 1135.85 31.2H1161.45V22.8H1134.65C1128.12 22.8 1121.85 23.8667 1115.85 26C1109.85 28.1333 1104.38 31.1333 1099.45 35C1094.65 38.7333 1090.45 43.2667 1086.85 48.6C1083.38 53.8 1080.85 59.6 1079.25 66C1078.18 70.5333 1077.58 75.2 1077.45 80C1077.45 84.6667 1078.05 89.3333 1079.25 94C1080.85 100.4 1083.38 106.267 1086.85 111.6C1090.45 116.8 1094.65 121.333 1099.45 125.2C1104.38 128.933 1109.85 131.867 1115.85 134C1121.85 136.133 1128.12 137.2 1134.65 137.2H1161.45V94.8H1195.65V128.8H1174.45V150.2H1134.65C1126.65 150.2 1118.92 148.933 1111.45 146.4C1104.12 143.733 1097.45 140.067 1091.45 135.4C1085.45 130.733 1080.32 125.133 1076.05 118.6C1071.78 112.067 1068.65 104.867 1066.65 97C1063.85 85.8 1063.85 74.4667 1066.65 63C1068.65 55.2667 1071.78 48.1333 1076.05 41.6C1080.45 35.0667 1085.65 29.4667 1091.65 24.8C1097.65 20.1333 1104.32 16.5333 1111.65 14C1118.98 11.3333 1126.65 9.99999 1134.65 9.99999H1174.45V31.2H1195.65V65.2ZM1174.45 116H1182.65V107.6H1174.45V116ZM1352.79 9.99999V43.8H1264.59V31H1339.99V22.6H1259.19V57.8H1246.39V43.8H1238.19V63.2H1325.99V97H1264.59V84.2H1313.19V75.8H1259.19V111H1246.39V97H1238.19V116.4H1352.79V150.2H1246.39V129H1225.39V84.2H1246.39V75.8H1225.39V31H1246.39V9.99999H1352.79ZM1259.19 129V137.4H1339.99V129H1259.19Z" fill="black"/>
</mask>
<g mask="url(#mask0_52_31)">
<rect y="-27" width="1360" height="200" fill="url(#paint0_linear_52_31)"/>
</g>
<defs>
<linearGradient id="paint0_linear_52_31" x1="0" y1="73" x2="1360" y2="73" gradientUnits="userSpaceOnUse">
<stop stop-color="#EF4665"/>
<stop offset="1" stop-color="#FFEABD"/>
</linearGradient>
</defs>
</svg>
